<svg width="41" height="37" viewBox="0 0 41 37" fill="none" xmlns="http://www.w3.org/2000/svg">
<path d="M32.5172 0H8.48276C3.79786 0 0 3.42734 0 7.65517V29.3448C0 33.5727 3.79786 37 8.48276 37H32.5172C37.2021 37 41 33.5727 41 29.3448V7.65517C41 3.42734 37.2021 0 32.5172 0Z" fill="url(#paint0_linear_30_102)"/>
<path d="M31.1035 4.46558H9.89658C7.16372 4.46558 4.9483 6.46486 4.9483 8.93109V28.069C4.9483 30.5353 7.16372 32.5345 9.89658 32.5345H31.1035C33.8363 32.5345 36.0518 30.5353 36.0518 28.069V8.93109C36.0518 6.46486 33.8363 4.46558 31.1035 4.46558Z" stroke="white" stroke-width="1.5" stroke-linecap="round"/>
<path d="M20.5 24.2414C24.0137 24.2414 26.862 21.6709 26.862 18.5C26.862 15.3292 24.0137 12.7587 20.5 12.7587C16.9863 12.7587 14.1379 15.3292 14.1379 18.5C14.1379 21.6709 16.9863 24.2414 20.5 24.2414Z" stroke="white" stroke-width="1.5" stroke-linecap="round"/>
<path d="M29.6897 12.1207C30.8609 12.1207 31.8103 11.2638 31.8103 10.2069C31.8103 9.14993 30.8609 8.29309 29.6897 8.29309C28.5184 8.29309 27.569 9.14993 27.569 10.2069C27.569 11.2638 28.5184 12.1207 29.6897 12.1207Z" fill="white"/>
<defs>
<linearGradient id="paint0_linear_30_102" x1="3.48113" y1="33.602" x2="38.2335" y2="-0.84002" gradientUnits="userSpaceOnUse">
<stop stop-color="#FF9900"/>
<stop offset="0.219286" stop-color="#FF8500" stop-opacity="0.856393"/>
<stop offset="0.484773" stop-color="#FF3B1C" stop-opacity="0.663168"/>
<stop offset="0.70949" stop-color="#EB00C6"/>
<stop offset="1" stop-color="#7111FF"/>
</linearGradient>
</defs>
</svg>
