<svg width="44" height="39" viewBox="0 0 44 39" fill="none" xmlns="http://www.w3.org/2000/svg">
<path d="M22 39C34.1503 39 44 30.2696 44 19.5C44 8.73045 34.1503 0 22 0C9.84974 0 0 8.73045 0 19.5C0 30.2696 9.84974 39 22 39Z" fill="#0A3586"/>
<path fill-rule="evenodd" clip-rule="evenodd" d="M28.3303 19.828C28.3303 18.5105 27.1515 17.4635 25.8388 17.4635C24.8359 17.4635 23.9492 17.4635 23.3601 18.5663C23.2513 18.7699 23.1254 19.3628 23.1254 19.656V25.35H19.939V18.1176V14.5503H23.2479L23.4111 15.9572H23.4825C23.9602 15.2887 25.046 14.5503 27.0049 14.5503C29.3927 14.5503 31.5333 16.1926 31.5333 19.2029V25.35H28.3303V19.828ZM15.6485 13.2669C14.606 13.2669 13.9333 12.6259 13.9333 11.8339C13.9333 11.0227 14.6278 10.4 15.6913 10.4C16.7548 10.4 17.4065 11.0224 17.4283 11.8339C17.4287 12.6259 16.7552 13.2669 15.6485 13.2669ZM14.3172 25.35V14.5503H17.1151V25.35H14.3172Z" fill="white"/>
</svg>
