<svg width="423" height="135" viewBox="0 0 423 135" fill="none" xmlns="http://www.w3.org/2000/svg">
<rect width="202" height="87" transform="translate(0 12)" fill="#D9C7B8"/>
<path d="M133.66 49.41V99H123.4V93.15C121.78 95.19 119.65 96.81 117.01 98.01C114.43 99.15 111.67 99.72 108.73 99.72C104.83 99.72 101.32 98.91 98.2 97.29C95.14 95.67 92.71 93.27 90.91 90.09C89.17 86.91 88.3 83.07 88.3 78.57V49.41H98.47V77.04C98.47 81.48 99.58 84.9 101.8 87.3C104.02 89.64 107.05 90.81 110.89 90.81C114.73 90.81 117.76 89.64 119.98 87.3C122.26 84.9 123.4 81.48 123.4 77.04V49.41H133.66ZM157.457 56.7C159.197 54.42 161.567 52.5 164.567 50.94C167.567 49.38 170.957 48.6 174.737 48.6C179.057 48.6 182.987 49.68 186.527 51.84C190.127 53.94 192.947 56.91 194.987 60.75C197.027 64.59 198.047 69 198.047 73.98C198.047 78.96 197.027 83.43 194.987 87.39C192.947 91.29 190.127 94.35 186.527 96.57C182.987 98.73 179.057 99.81 174.737 99.81C170.957 99.81 167.597 99.06 164.657 97.56C161.717 96 159.317 94.08 157.457 91.8V122.58H147.197V49.41H157.457V56.7ZM187.607 73.98C187.607 70.56 186.887 67.62 185.447 65.16C184.067 62.64 182.207 60.75 179.867 59.49C177.587 58.17 175.127 57.51 172.487 57.51C169.907 57.51 167.447 58.17 165.107 59.49C162.827 60.81 160.967 62.73 159.527 65.25C158.147 67.77 157.457 70.74 157.457 74.16C157.457 77.58 158.147 80.58 159.527 83.16C160.967 85.68 162.827 87.6 165.107 88.92C167.447 90.24 169.907 90.9 172.487 90.9C175.127 90.9 177.587 90.24 179.867 88.92C182.207 87.54 184.067 85.56 185.447 82.98C186.887 80.4 187.607 77.4 187.607 73.98ZM228.983 57.78H219.803V99H209.453V57.78H203.603V49.41H209.453V45.9C209.453 40.2 210.953 36.06 213.953 33.48C217.013 30.84 221.783 29.52 228.263 29.52V38.07C225.143 38.07 222.953 38.67 221.693 39.87C220.433 41.01 219.803 43.02 219.803 45.9V49.41H228.983V57.78ZM259.586 99.81C254.906 99.81 250.676 98.76 246.896 96.66C243.116 94.5 240.146 91.5 237.986 87.66C235.826 83.76 234.746 79.26 234.746 74.16C234.746 69.12 235.856 64.65 238.076 60.75C240.296 56.85 243.326 53.85 247.166 51.75C251.006 49.65 255.296 48.6 260.036 48.6C264.776 48.6 269.066 49.65 272.906 51.75C276.746 53.85 279.776 56.85 281.996 60.75C284.216 64.65 285.326 69.12 285.326 74.16C285.326 79.2 284.186 83.67 281.906 87.57C279.626 91.47 276.506 94.5 272.546 96.66C268.646 98.76 264.326 99.81 259.586 99.81ZM259.586 90.9C262.226 90.9 264.686 90.27 266.966 89.01C269.306 87.75 271.196 85.86 272.636 83.34C274.076 80.82 274.796 77.76 274.796 74.16C274.796 70.56 274.106 67.53 272.726 65.07C271.346 62.55 269.516 60.66 267.236 59.4C264.956 58.14 262.496 57.51 259.856 57.51C257.216 57.51 254.756 58.14 252.476 59.4C250.256 60.66 248.486 62.55 247.166 65.07C245.846 67.53 245.186 70.56 245.186 74.16C245.186 79.5 246.536 83.64 249.236 86.58C251.996 89.46 255.446 90.9 259.586 90.9ZM340.379 49.41V99H330.119V93.15C328.499 95.19 326.369 96.81 323.729 98.01C321.149 99.15 318.389 99.72 315.449 99.72C311.549 99.72 308.039 98.91 304.919 97.29C301.859 95.67 299.429 93.27 297.629 90.09C295.889 86.91 295.019 83.07 295.019 78.57V49.41H305.189V77.04C305.189 81.48 306.299 84.9 308.519 87.3C310.739 89.64 313.769 90.81 317.609 90.81C321.449 90.81 324.479 89.64 326.699 87.3C328.979 84.9 330.119 81.48 330.119 77.04V49.41H340.379ZM364.176 56.61C365.676 54.09 367.656 52.14 370.116 50.76C372.636 49.32 375.606 48.6 379.026 48.6V59.22H376.416C372.396 59.22 369.336 60.24 367.236 62.28C365.196 64.32 364.176 67.86 364.176 72.9V99H353.916V49.41H364.176V56.61ZM392.597 99.63C390.737 99.63 389.177 99 387.917 97.74C386.657 96.48 386.027 94.92 386.027 93.06C386.027 91.2 386.657 89.64 387.917 88.38C389.177 87.12 390.737 86.49 392.597 86.49C394.397 86.49 395.927 87.12 397.187 88.38C398.447 89.64 399.077 91.2 399.077 93.06C399.077 94.92 398.447 96.48 397.187 97.74C395.927 99 394.397 99.63 392.597 99.63Z" fill="#F2F2F2"/>
<path d="M187.268 104.764V107.212H190.148V108.328H187.268V110.884H190.508V112H185.9V103.648H190.508V104.764H187.268ZM200.197 105.28C200.717 105.28 201.181 105.388 201.589 105.604C202.005 105.82 202.329 106.14 202.561 106.564C202.801 106.988 202.921 107.5 202.921 108.1V112H201.565V108.304C201.565 107.712 201.417 107.26 201.121 106.948C200.825 106.628 200.421 106.468 199.909 106.468C199.397 106.468 198.989 106.628 198.685 106.948C198.389 107.26 198.241 107.712 198.241 108.304V112H196.885V108.304C196.885 107.712 196.737 107.26 196.441 106.948C196.145 106.628 195.741 106.468 195.229 106.468C194.717 106.468 194.309 106.628 194.005 106.948C193.709 107.26 193.561 107.712 193.561 108.304V112H192.193V105.388H193.561V106.144C193.785 105.872 194.069 105.66 194.413 105.508C194.757 105.356 195.125 105.28 195.517 105.28C196.045 105.28 196.517 105.392 196.933 105.616C197.349 105.84 197.669 106.164 197.893 106.588C198.093 106.188 198.405 105.872 198.829 105.64C199.253 105.4 199.709 105.28 200.197 105.28ZM206.03 106.36C206.262 106.056 206.578 105.8 206.978 105.592C207.378 105.384 207.83 105.28 208.334 105.28C208.91 105.28 209.434 105.424 209.906 105.712C210.386 105.992 210.762 106.388 211.034 106.9C211.306 107.412 211.442 108 211.442 108.664C211.442 109.328 211.306 109.924 211.034 110.452C210.762 110.972 210.386 111.38 209.906 111.676C209.434 111.964 208.91 112.108 208.334 112.108C207.83 112.108 207.382 112.008 206.99 111.808C206.598 111.6 206.278 111.344 206.03 111.04V115.144H204.662V105.388H206.03V106.36ZM210.05 108.664C210.05 108.208 209.954 107.816 209.762 107.488C209.578 107.152 209.33 106.9 209.018 106.732C208.714 106.556 208.386 106.468 208.034 106.468C207.69 106.468 207.362 106.556 207.05 106.732C206.746 106.908 206.498 107.164 206.306 107.5C206.122 107.836 206.03 108.232 206.03 108.688C206.03 109.144 206.122 109.544 206.306 109.888C206.498 110.224 206.746 110.48 207.05 110.656C207.362 110.832 207.69 110.92 208.034 110.92C208.386 110.92 208.714 110.832 209.018 110.656C209.33 110.472 209.578 110.208 209.762 109.864C209.954 109.52 210.05 109.12 210.05 108.664ZM214.163 106.348C214.363 106.012 214.627 105.752 214.955 105.568C215.291 105.376 215.687 105.28 216.143 105.28V106.696H215.795C215.259 106.696 214.851 106.832 214.571 107.104C214.299 107.376 214.163 107.848 214.163 108.52V112H212.795V105.388H214.163V106.348ZM223.46 108.532C223.46 108.78 223.444 109.004 223.412 109.204H218.36C218.4 109.732 218.596 110.156 218.948 110.476C219.3 110.796 219.732 110.956 220.244 110.956C220.98 110.956 221.5 110.648 221.804 110.032H223.28C223.08 110.64 222.716 111.14 222.188 111.532C221.668 111.916 221.02 112.108 220.244 112.108C219.612 112.108 219.044 111.968 218.54 111.688C218.044 111.4 217.652 111 217.364 110.488C217.084 109.968 216.944 109.368 216.944 108.688C216.944 108.008 217.08 107.412 217.352 106.9C217.632 106.38 218.02 105.98 218.516 105.7C219.02 105.42 219.596 105.28 220.244 105.28C220.868 105.28 221.424 105.416 221.912 105.688C222.4 105.96 222.78 106.344 223.052 106.84C223.324 107.328 223.46 107.892 223.46 108.532ZM222.032 108.1C222.024 107.596 221.844 107.192 221.492 106.888C221.14 106.584 220.704 106.432 220.184 106.432C219.712 106.432 219.308 106.584 218.972 106.888C218.636 107.184 218.436 107.588 218.372 108.1H222.032ZM221.444 103.612L218.792 104.92V103.912L221.444 102.448V103.612ZM227.206 112.108C226.686 112.108 226.218 112.016 225.802 111.832C225.394 111.64 225.07 111.384 224.83 111.064C224.59 110.736 224.462 110.372 224.446 109.972H225.862C225.886 110.252 226.018 110.488 226.258 110.68C226.506 110.864 226.814 110.956 227.182 110.956C227.566 110.956 227.862 110.884 228.07 110.74C228.286 110.588 228.394 110.396 228.394 110.164C228.394 109.916 228.274 109.732 228.034 109.612C227.802 109.492 227.43 109.36 226.918 109.216C226.422 109.08 226.018 108.948 225.706 108.82C225.394 108.692 225.122 108.496 224.89 108.232C224.666 107.968 224.554 107.62 224.554 107.188C224.554 106.836 224.658 106.516 224.866 106.228C225.074 105.932 225.37 105.7 225.754 105.532C226.146 105.364 226.594 105.28 227.098 105.28C227.85 105.28 228.454 105.472 228.91 105.856C229.374 106.232 229.622 106.748 229.654 107.404H228.286C228.262 107.108 228.142 106.872 227.926 106.696C227.71 106.52 227.418 106.432 227.05 106.432C226.69 106.432 226.414 106.5 226.222 106.636C226.03 106.772 225.934 106.952 225.934 107.176C225.934 107.352 225.998 107.5 226.126 107.62C226.254 107.74 226.41 107.836 226.594 107.908C226.778 107.972 227.05 108.056 227.41 108.16C227.89 108.288 228.282 108.42 228.586 108.556C228.898 108.684 229.166 108.876 229.39 109.132C229.614 109.388 229.73 109.728 229.738 110.152C229.738 110.528 229.634 110.864 229.426 111.16C229.218 111.456 228.922 111.688 228.538 111.856C228.162 112.024 227.718 112.108 227.206 112.108ZM232.812 106.504V110.164C232.812 110.412 232.868 110.592 232.98 110.704C233.1 110.808 233.3 110.86 233.58 110.86H234.42V112H233.34C232.724 112 232.252 111.856 231.924 111.568C231.596 111.28 231.432 110.812 231.432 110.164V106.504H230.652V105.388H231.432V103.744H232.812V105.388H234.42V106.504H232.812ZM236.377 104.512C236.129 104.512 235.921 104.428 235.753 104.26C235.585 104.092 235.501 103.884 235.501 103.636C235.501 103.388 235.585 103.18 235.753 103.012C235.921 102.844 236.129 102.76 236.377 102.76C236.617 102.76 236.821 102.844 236.989 103.012C237.157 103.18 237.241 103.388 237.241 103.636C237.241 103.884 237.157 104.092 236.989 104.26C236.821 104.428 236.617 104.512 236.377 104.512ZM237.049 105.388V112H235.681V105.388H237.049ZM246.849 105.28C247.369 105.28 247.833 105.388 248.241 105.604C248.657 105.82 248.981 106.14 249.213 106.564C249.453 106.988 249.573 107.5 249.573 108.1V112H248.217V108.304C248.217 107.712 248.069 107.26 247.773 106.948C247.477 106.628 247.073 106.468 246.561 106.468C246.049 106.468 245.641 106.628 245.337 106.948C245.041 107.26 244.893 107.712 244.893 108.304V112H243.537V108.304C243.537 107.712 243.389 107.26 243.093 106.948C242.797 106.628 242.393 106.468 241.881 106.468C241.369 106.468 240.961 106.628 240.657 106.948C240.361 107.26 240.213 107.712 240.213 108.304V112H238.845V105.388H240.213V106.144C240.437 105.872 240.721 105.66 241.065 105.508C241.409 105.356 241.777 105.28 242.169 105.28C242.697 105.28 243.169 105.392 243.585 105.616C244.001 105.84 244.321 106.164 244.545 106.588C244.745 106.188 245.057 105.872 245.481 105.64C245.905 105.4 246.361 105.28 246.849 105.28ZM254.182 112.108C253.558 112.108 252.994 111.968 252.49 111.688C251.986 111.4 251.59 111 251.302 110.488C251.014 109.968 250.87 109.368 250.87 108.688C250.87 108.016 251.018 107.42 251.314 106.9C251.61 106.38 252.014 105.98 252.526 105.7C253.038 105.42 253.61 105.28 254.242 105.28C254.874 105.28 255.446 105.42 255.958 105.7C256.47 105.98 256.874 106.38 257.17 106.9C257.466 107.42 257.614 108.016 257.614 108.688C257.614 109.36 257.462 109.956 257.158 110.476C256.854 110.996 256.438 111.4 255.91 111.688C255.39 111.968 254.814 112.108 254.182 112.108ZM254.182 110.92C254.534 110.92 254.862 110.836 255.166 110.668C255.478 110.5 255.73 110.248 255.922 109.912C256.114 109.576 256.21 109.168 256.21 108.688C256.21 108.208 256.118 107.804 255.934 107.476C255.75 107.14 255.506 106.888 255.202 106.72C254.898 106.552 254.57 106.468 254.218 106.468C253.866 106.468 253.538 106.552 253.234 106.72C252.938 106.888 252.702 107.14 252.526 107.476C252.35 107.804 252.262 108.208 252.262 108.688C252.262 109.4 252.442 109.952 252.802 110.344C253.17 110.728 253.63 110.92 254.182 110.92ZM263.452 106.36C263.684 106.056 264 105.8 264.4 105.592C264.8 105.384 265.252 105.28 265.756 105.28C266.332 105.28 266.856 105.424 267.328 105.712C267.808 105.992 268.184 106.388 268.456 106.9C268.728 107.412 268.864 108 268.864 108.664C268.864 109.328 268.728 109.924 268.456 110.452C268.184 110.972 267.808 111.38 267.328 111.676C266.856 111.964 266.332 112.108 265.756 112.108C265.252 112.108 264.804 112.008 264.412 111.808C264.02 111.6 263.7 111.344 263.452 111.04V115.144H262.084V105.388H263.452V106.36ZM267.472 108.664C267.472 108.208 267.376 107.816 267.184 107.488C267 107.152 266.752 106.9 266.44 106.732C266.136 106.556 265.808 106.468 265.456 106.468C265.112 106.468 264.784 106.556 264.472 106.732C264.168 106.908 263.92 107.164 263.728 107.5C263.544 107.836 263.452 108.232 263.452 108.688C263.452 109.144 263.544 109.544 263.728 109.888C263.92 110.224 264.168 110.48 264.472 110.656C264.784 110.832 265.112 110.92 265.456 110.92C265.808 110.92 266.136 110.832 266.44 110.656C266.752 110.472 267 110.208 267.184 109.864C267.376 109.52 267.472 109.12 267.472 108.664ZM269.76 108.664C269.76 108 269.896 107.412 270.168 106.9C270.448 106.388 270.824 105.992 271.296 105.712C271.776 105.424 272.304 105.28 272.88 105.28C273.4 105.28 273.852 105.384 274.236 105.592C274.628 105.792 274.94 106.044 275.172 106.348V105.388H276.552V112H275.172V111.016C274.94 111.328 274.624 111.588 274.224 111.796C273.824 112.004 273.368 112.108 272.856 112.108C272.288 112.108 271.768 111.964 271.296 111.676C270.824 111.38 270.448 110.972 270.168 110.452C269.896 109.924 269.76 109.328 269.76 108.664ZM275.172 108.688C275.172 108.232 275.076 107.836 274.884 107.5C274.7 107.164 274.456 106.908 274.152 106.732C273.848 106.556 273.52 106.468 273.168 106.468C272.816 106.468 272.488 106.556 272.184 106.732C271.88 106.9 271.632 107.152 271.44 107.488C271.256 107.816 271.164 108.208 271.164 108.664C271.164 109.12 271.256 109.52 271.44 109.864C271.632 110.208 271.88 110.472 272.184 110.656C272.496 110.832 272.824 110.92 273.168 110.92C273.52 110.92 273.848 110.832 274.152 110.656C274.456 110.48 274.7 110.224 274.884 109.888C275.076 109.544 275.172 109.144 275.172 108.688ZM279.717 106.348C279.917 106.012 280.181 105.752 280.509 105.568C280.845 105.376 281.241 105.28 281.697 105.28V106.696H281.349C280.813 106.696 280.405 106.832 280.125 107.104C279.853 107.376 279.717 107.848 279.717 108.52V112H278.349V105.388H279.717V106.348ZM282.499 108.664C282.499 108 282.635 107.412 282.907 106.9C283.187 106.388 283.563 105.992 284.035 105.712C284.515 105.424 285.043 105.28 285.619 105.28C286.139 105.28 286.591 105.384 286.975 105.592C287.367 105.792 287.679 106.044 287.911 106.348V105.388H289.291V112H287.911V111.016C287.679 111.328 287.363 111.588 286.963 111.796C286.563 112.004 286.107 112.108 285.595 112.108C285.027 112.108 284.507 111.964 284.035 111.676C283.563 111.38 283.187 110.972 282.907 110.452C282.635 109.924 282.499 109.328 282.499 108.664ZM287.911 108.688C287.911 108.232 287.815 107.836 287.623 107.5C287.439 107.164 287.195 106.908 286.891 106.732C286.587 106.556 286.259 106.468 285.907 106.468C285.555 106.468 285.227 106.556 284.923 106.732C284.619 106.9 284.371 107.152 284.179 107.488C283.995 107.816 283.903 108.208 283.903 108.664C283.903 109.12 283.995 109.52 284.179 109.864C284.371 110.208 284.619 110.472 284.923 110.656C285.235 110.832 285.563 110.92 285.907 110.92C286.259 110.92 286.587 110.832 286.891 110.656C287.195 110.48 287.439 110.224 287.623 109.888C287.815 109.544 287.911 109.144 287.911 108.688ZM293.749 108.664C293.749 108 293.885 107.412 294.157 106.9C294.437 106.388 294.813 105.992 295.285 105.712C295.765 105.424 296.297 105.28 296.881 105.28C297.393 105.28 297.845 105.384 298.237 105.592C298.637 105.8 298.945 106.052 299.161 106.348V105.388H300.541V115.144H299.161V111.04C298.945 111.336 298.633 111.588 298.225 111.796C297.817 112.004 297.353 112.108 296.833 112.108C296.265 112.108 295.745 111.964 295.273 111.676C294.809 111.38 294.437 110.972 294.157 110.452C293.885 109.924 293.749 109.328 293.749 108.664ZM299.161 108.688C299.161 108.232 299.065 107.836 298.873 107.5C298.689 107.164 298.445 106.908 298.141 106.732C297.837 106.556 297.509 106.468 297.157 106.468C296.805 106.468 296.477 106.556 296.173 106.732C295.869 106.9 295.621 107.152 295.429 107.488C295.245 107.816 295.153 108.208 295.153 108.664C295.153 109.12 295.245 109.52 295.429 109.864C295.621 110.208 295.869 110.472 296.173 110.656C296.485 110.832 296.813 110.92 297.157 110.92C297.509 110.92 297.837 110.832 298.141 110.656C298.445 110.48 298.689 110.224 298.873 109.888C299.065 109.544 299.161 109.144 299.161 108.688ZM308.326 105.388V112H306.958V111.22C306.742 111.492 306.458 111.708 306.106 111.868C305.762 112.02 305.394 112.096 305.002 112.096C304.482 112.096 304.014 111.988 303.598 111.772C303.19 111.556 302.866 111.236 302.626 110.812C302.394 110.388 302.278 109.876 302.278 109.276V105.388H303.634V109.072C303.634 109.664 303.782 110.12 304.078 110.44C304.374 110.752 304.778 110.908 305.29 110.908C305.802 110.908 306.206 110.752 306.502 110.44C306.806 110.12 306.958 109.664 306.958 109.072V105.388H308.326ZM316.19 108.532C316.19 108.78 316.174 109.004 316.142 109.204H311.09C311.13 109.732 311.326 110.156 311.678 110.476C312.03 110.796 312.462 110.956 312.974 110.956C313.71 110.956 314.23 110.648 314.534 110.032H316.01C315.81 110.64 315.446 111.14 314.918 111.532C314.398 111.916 313.75 112.108 312.974 112.108C312.342 112.108 311.774 111.968 311.27 111.688C310.774 111.4 310.382 111 310.094 110.488C309.814 109.968 309.674 109.368 309.674 108.688C309.674 108.008 309.81 107.412 310.082 106.9C310.362 106.38 310.75 105.98 311.246 105.7C311.75 105.42 312.326 105.28 312.974 105.28C313.598 105.28 314.154 105.416 314.642 105.688C315.13 105.96 315.51 106.344 315.782 106.84C316.054 107.328 316.19 107.892 316.19 108.532ZM314.762 108.1C314.754 107.596 314.574 107.192 314.222 106.888C313.87 106.584 313.434 106.432 312.914 106.432C312.442 106.432 312.038 106.584 311.702 106.888C311.366 107.184 311.166 107.588 311.102 108.1H314.762ZM325.541 105.28C326.061 105.28 326.525 105.388 326.933 105.604C327.349 105.82 327.673 106.14 327.905 106.564C328.145 106.988 328.265 107.5 328.265 108.1V112H326.909V108.304C326.909 107.712 326.761 107.26 326.465 106.948C326.169 106.628 325.765 106.468 325.253 106.468C324.741 106.468 324.333 106.628 324.029 106.948C323.733 107.26 323.585 107.712 323.585 108.304V112H322.229V108.304C322.229 107.712 322.081 107.26 321.785 106.948C321.489 106.628 321.085 106.468 320.573 106.468C320.061 106.468 319.653 106.628 319.349 106.948C319.053 107.26 318.905 107.712 318.905 108.304V112H317.537V105.388H318.905V106.144C319.129 105.872 319.413 105.66 319.757 105.508C320.101 105.356 320.469 105.28 320.861 105.28C321.389 105.28 321.861 105.392 322.277 105.616C322.693 105.84 323.013 106.164 323.237 106.588C323.437 106.188 323.749 105.872 324.173 105.64C324.597 105.4 325.053 105.28 325.541 105.28ZM334.491 106.36C334.723 106.056 335.039 105.8 335.439 105.592C335.839 105.384 336.291 105.28 336.795 105.28C337.371 105.28 337.895 105.424 338.367 105.712C338.847 105.992 339.223 106.388 339.495 106.9C339.767 107.412 339.903 108 339.903 108.664C339.903 109.328 339.767 109.924 339.495 110.452C339.223 110.972 338.847 111.38 338.367 111.676C337.895 111.964 337.371 112.108 336.795 112.108C336.291 112.108 335.843 112.008 335.451 111.808C335.059 111.6 334.739 111.344 334.491 111.04V115.144H333.123V105.388H334.491V106.36ZM338.511 108.664C338.511 108.208 338.415 107.816 338.223 107.488C338.039 107.152 337.791 106.9 337.479 106.732C337.175 106.556 336.847 106.468 336.495 106.468C336.151 106.468 335.823 106.556 335.511 106.732C335.207 106.908 334.959 107.164 334.767 107.5C334.583 107.836 334.491 108.232 334.491 108.688C334.491 109.144 334.583 109.544 334.767 109.888C334.959 110.224 335.207 110.48 335.511 110.656C335.823 110.832 336.151 110.92 336.495 110.92C336.847 110.92 337.175 110.832 337.479 110.656C337.791 110.472 338.039 110.208 338.223 109.864C338.415 109.52 338.511 109.12 338.511 108.664ZM342.623 106.348C342.823 106.012 343.087 105.752 343.415 105.568C343.751 105.376 344.147 105.28 344.603 105.28V106.696H344.255C343.719 106.696 343.311 106.832 343.031 107.104C342.759 107.376 342.623 107.848 342.623 108.52V112H341.255V105.388H342.623V106.348ZM351.921 108.532C351.921 108.78 351.905 109.004 351.873 109.204H346.821C346.861 109.732 347.057 110.156 347.409 110.476C347.761 110.796 348.193 110.956 348.705 110.956C349.441 110.956 349.961 110.648 350.265 110.032H351.741C351.541 110.64 351.177 111.14 350.649 111.532C350.129 111.916 349.481 112.108 348.705 112.108C348.073 112.108 347.505 111.968 347.001 111.688C346.505 111.4 346.113 111 345.825 110.488C345.545 109.968 345.405 109.368 345.405 108.688C345.405 108.008 345.541 107.412 345.813 106.9C346.093 106.38 346.481 105.98 346.977 105.7C347.481 105.42 348.057 105.28 348.705 105.28C349.329 105.28 349.885 105.416 350.373 105.688C350.861 105.96 351.241 106.344 351.513 106.84C351.785 107.328 351.921 107.892 351.921 108.532ZM350.493 108.1C350.485 107.596 350.305 107.192 349.953 106.888C349.601 106.584 349.165 106.432 348.645 106.432C348.173 106.432 347.769 106.584 347.433 106.888C347.097 107.184 346.897 107.588 346.833 108.1H350.493ZM352.811 108.688C352.811 108.008 352.947 107.412 353.219 106.9C353.499 106.38 353.883 105.98 354.371 105.7C354.859 105.42 355.419 105.28 356.051 105.28C356.851 105.28 357.511 105.472 358.031 105.856C358.559 106.232 358.915 106.772 359.099 107.476H357.623C357.503 107.148 357.311 106.892 357.047 106.708C356.783 106.524 356.451 106.432 356.051 106.432C355.491 106.432 355.043 106.632 354.707 107.032C354.379 107.424 354.215 107.976 354.215 108.688C354.215 109.4 354.379 109.956 354.707 110.356C355.043 110.756 355.491 110.956 356.051 110.956C356.843 110.956 357.367 110.608 357.623 109.912H359.099C358.907 110.584 358.547 111.12 358.019 111.52C357.491 111.912 356.835 112.108 356.051 112.108C355.419 112.108 354.859 111.968 354.371 111.688C353.883 111.4 353.499 111 353.219 110.488C352.947 109.968 352.811 109.368 352.811 108.688ZM361.159 104.512C360.911 104.512 360.703 104.428 360.535 104.26C360.367 104.092 360.283 103.884 360.283 103.636C360.283 103.388 360.367 103.18 360.535 103.012C360.703 102.844 360.911 102.76 361.159 102.76C361.399 102.76 361.603 102.844 361.771 103.012C361.939 103.18 362.023 103.388 362.023 103.636C362.023 103.884 361.939 104.092 361.771 104.26C361.603 104.428 361.399 104.512 361.159 104.512ZM361.831 105.388V112H360.463V105.388H361.831ZM366.027 112.108C365.507 112.108 365.039 112.016 364.623 111.832C364.215 111.64 363.891 111.384 363.651 111.064C363.411 110.736 363.283 110.372 363.267 109.972H364.683C364.707 110.252 364.839 110.488 365.079 110.68C365.327 110.864 365.635 110.956 366.003 110.956C366.387 110.956 366.683 110.884 366.891 110.74C367.107 110.588 367.215 110.396 367.215 110.164C367.215 109.916 367.095 109.732 366.855 109.612C366.623 109.492 366.251 109.36 365.739 109.216C365.243 109.08 364.839 108.948 364.527 108.82C364.215 108.692 363.943 108.496 363.711 108.232C363.487 107.968 363.375 107.62 363.375 107.188C363.375 106.836 363.479 106.516 363.687 106.228C363.895 105.932 364.191 105.7 364.575 105.532C364.967 105.364 365.415 105.28 365.919 105.28C366.671 105.28 367.275 105.472 367.731 105.856C368.195 106.232 368.443 106.748 368.475 107.404H367.107C367.083 107.108 366.963 106.872 366.747 106.696C366.531 106.52 366.239 106.432 365.871 106.432C365.511 106.432 365.235 106.5 365.043 106.636C364.851 106.772 364.755 106.952 364.755 107.176C364.755 107.352 364.819 107.5 364.947 107.62C365.075 107.74 365.231 107.836 365.415 107.908C365.599 107.972 365.871 108.056 366.231 108.16C366.711 108.288 367.103 108.42 367.407 108.556C367.719 108.684 367.987 108.876 368.211 109.132C368.435 109.388 368.551 109.728 368.559 110.152C368.559 110.528 368.455 110.864 368.247 111.16C368.039 111.456 367.743 111.688 367.359 111.856C366.983 112.024 366.539 112.108 366.027 112.108ZM369.581 108.664C369.581 108 369.717 107.412 369.989 106.9C370.269 106.388 370.645 105.992 371.117 105.712C371.597 105.424 372.125 105.28 372.701 105.28C373.221 105.28 373.673 105.384 374.057 105.592C374.449 105.792 374.761 106.044 374.993 106.348V105.388H376.373V112H374.993V111.016C374.761 111.328 374.445 111.588 374.045 111.796C373.645 112.004 373.189 112.108 372.677 112.108C372.109 112.108 371.589 111.964 371.117 111.676C370.645 111.38 370.269 110.972 369.989 110.452C369.717 109.924 369.581 109.328 369.581 108.664ZM374.993 108.688C374.993 108.232 374.897 107.836 374.705 107.5C374.521 107.164 374.277 106.908 373.973 106.732C373.669 106.556 373.341 106.468 372.989 106.468C372.637 106.468 372.309 106.556 372.005 106.732C371.701 106.9 371.453 107.152 371.261 107.488C371.077 107.816 370.985 108.208 370.985 108.664C370.985 109.12 371.077 109.52 371.261 109.864C371.453 110.208 371.701 110.472 372.005 110.656C372.317 110.832 372.645 110.92 372.989 110.92C373.341 110.92 373.669 110.832 373.973 110.656C374.277 110.48 374.521 110.224 374.705 109.888C374.897 109.544 374.993 109.144 374.993 108.688ZM378.722 112.084C378.474 112.084 378.266 112 378.098 111.832C377.93 111.664 377.846 111.456 377.846 111.208C377.846 110.96 377.93 110.752 378.098 110.584C378.266 110.416 378.474 110.332 378.722 110.332C378.962 110.332 379.166 110.416 379.334 110.584C379.502 110.752 379.586 110.96 379.586 111.208C379.586 111.456 379.502 111.664 379.334 111.832C379.166 112 378.962 112.084 378.722 112.084Z" fill="white"/>
</svg>
